<svg xmlns="http://www.w3.org/2000/svg" version="1.1" xmlns:xlink="http://www.w3.org/1999/xlink" xmlns:svgjs="http://svgjs.dev/svgjs" width="1500" height="469" viewBox="0 0 1500 469"><g transform="matrix(1,0,0,1,-0.9090909090909918,-1.75856134845489)"><svg viewBox="0 0 396 124" data-background-color="#ffffff" preserveAspectRatio="xMidYMid meet" height="469" width="1500" xmlns="http://www.w3.org/2000/svg" xmlns:xlink="http://www.w3.org/1999/xlink"><g id="tight-bounds" transform="matrix(1,0,0,1,0.2400000000000091,0.4649501219795411)"><svg viewBox="0 0 395.52 123.07009975604092" height="123.07009975604092" width="395.52"><g><svg viewBox="0 0 599.1208784005975 186.42259878309162" height="123.07009975604092" width="395.52"><g transform="matrix(1,0,0,1,203.60087840059748,25.76462834122323)"><svg viewBox="0 0 395.52 134.89334210064516" height="134.89334210064516" width="395.52"><g id="textblocktransform"><svg viewBox="0 0 395.52 134.89334210064516" height="134.89334210064516" width="395.52" id="textblock"><g><svg viewBox="0 0 395.52 72.75502304147464" height="72.75502304147464" width="395.52"><g transform="matrix(1,0,0,1,0,0)"><svg width="395.52" viewBox="2.05 -36.52 250.93 46.77" height="72.75502304147464" data-palette-color="#000000"><g class="wordmark-text-0" data-fill-palette-color="primary" id="text-0"><path d="M14.06 0.61L14.06 0.61Q10.5 0.61 7.42-0.7 4.35-2 2.05-4.37L2.05-4.37 4.93-7.81Q6.71-5.98 9.16-4.96 11.6-3.93 14.14-3.93L14.14-3.93Q17.21-3.93 18.9-5.26 20.58-6.59 20.58-8.79L20.58-8.79Q20.58-10.35 19.87-11.28 19.17-12.21 17.93-12.87 16.7-13.53 15.14-14.21L15.14-14.21 10.45-16.26Q8.81-16.94 7.24-18.07 5.66-19.19 4.64-20.91 3.61-22.63 3.61-25.1L3.61-25.1Q3.61-27.76 5.04-29.85 6.47-31.93 8.95-33.15 11.43-34.38 14.62-34.38L14.62-34.38Q17.68-34.38 20.31-33.23 22.95-32.08 24.8-30.27L24.8-30.27 22-26.81Q20.41-28.2 18.53-29 16.65-29.81 14.62-29.81L14.62-29.81Q12.04-29.81 10.47-28.63 8.91-27.44 8.91-25.42L8.91-25.42Q8.91-23.95 9.7-23.02 10.5-22.09 11.74-21.45 12.99-20.8 14.36-20.24L14.36-20.24 18.99-18.29Q22-17.04 23.95-14.98 25.9-12.92 25.9-9.2L25.9-9.2Q25.9-6.49 24.48-4.26 23.05-2.03 20.4-0.71 17.75 0.61 14.06 0.61ZM36.96 0L31.78 0 31.78-25.17 36.96-25.17 36.96 0ZM34.42-29.93L34.42-29.93Q32.98-29.93 32.1-30.8 31.22-31.67 31.22-33.08L31.22-33.08Q31.22-34.45 32.1-35.29 32.98-36.13 34.42-36.13L34.42-36.13Q35.86-36.13 36.74-35.29 37.62-34.45 37.62-33.08L37.62-33.08Q37.62-31.67 36.74-30.8 35.86-29.93 34.42-29.93ZM50.09 0L44.92 0 44.92-25.17 49.19-25.17 49.6-20.68 49.73-20.68Q51.07-23.1 52.95-24.45 54.83-25.81 56.9-25.81L56.9-25.81Q58.54-25.81 59.69-25.29L59.69-25.29 58.59-20.87Q58-21.04 57.5-21.12 57-21.19 56.22-21.19L56.22-21.19Q54.68-21.19 52.99-19.97 51.29-18.75 50.09-15.72L50.09-15.72 50.09 0ZM73.6 0.61L73.6 0.61Q70.5 0.61 67.8-0.94 65.1-2.49 63.46-5.43 61.81-8.37 61.81-12.57L61.81-12.57Q61.81-16.75 63.46-19.71 65.1-22.68 67.8-24.24 70.5-25.81 73.6-25.81L73.6-25.81Q76.75-25.81 79.45-24.24 82.15-22.68 83.81-19.71 85.47-16.75 85.47-12.57L85.47-12.57Q85.47-8.37 83.81-5.43 82.15-2.49 79.45-0.94 76.75 0.61 73.6 0.61ZM73.6-3.61L73.6-3.61Q76.6-3.61 78.39-6.07 80.17-8.52 80.17-12.57L80.17-12.57Q80.17-16.6 78.39-19.08 76.6-21.56 73.6-21.56L73.6-21.56Q70.65-21.56 68.88-19.08 67.11-16.6 67.11-12.57L67.11-12.57Q67.11-8.52 68.88-6.07 70.65-3.61 73.6-3.61ZM96.84 0L91.66 0 91.66-36.52 96.84-36.52 96.84-26.86 96.62-21.85Q98.31-23.44 100.28-24.62 102.26-25.81 104.85-25.81L104.85-25.81Q108.83-25.81 110.68-23.23 112.54-20.65 112.54-15.87L112.54-15.87 112.54 0 107.39 0 107.39-15.21Q107.39-18.51 106.37-19.93 105.36-21.36 103.07-21.36L103.07-21.36Q101.33-21.36 99.94-20.46 98.55-19.56 96.84-17.87L96.84-17.87 96.84 0ZM125.28 0L120.1 0 120.1-25.17 125.28-25.17 125.28 0ZM122.74-29.93L122.74-29.93Q121.3-29.93 120.42-30.8 119.54-31.67 119.54-33.08L119.54-33.08Q119.54-34.45 120.42-35.29 121.3-36.13 122.74-36.13L122.74-36.13Q124.18-36.13 125.06-35.29 125.94-34.45 125.94-33.08L125.94-33.08Q125.94-31.67 125.06-30.8 124.18-29.93 122.74-29.93Z" fill="#000000" data-fill-palette-color="primary"></path><path d="M156.11 0.61L156.11 0.61Q152.55 0.61 149.47-0.7 146.4-2 144.1-4.37L144.1-4.37 146.98-7.81Q148.76-5.98 151.21-4.96 153.65-3.93 156.19-3.93L156.19-3.93Q159.26-3.93 160.95-5.26 162.63-6.59 162.63-8.79L162.63-8.79Q162.63-10.35 161.92-11.28 161.22-12.21 159.98-12.87 158.75-13.53 157.19-14.21L157.19-14.21 152.5-16.26Q150.86-16.94 149.29-18.07 147.71-19.19 146.69-20.91 145.66-22.63 145.66-25.1L145.66-25.1Q145.66-27.76 147.09-29.85 148.52-31.93 151-33.15 153.48-34.38 156.67-34.38L156.67-34.38Q159.73-34.38 162.36-33.23 165-32.08 166.86-30.27L166.86-30.27 164.05-26.81Q162.46-28.2 160.58-29 158.7-29.81 156.67-29.81L156.67-29.81Q154.09-29.81 152.52-28.63 150.96-27.44 150.96-25.42L150.96-25.42Q150.96-23.95 151.76-23.02 152.55-22.09 153.79-21.45 155.04-20.8 156.41-20.24L156.41-20.24 161.04-18.29Q164.05-17.04 166-14.98 167.95-12.92 167.95-9.2L167.95-9.2Q167.95-6.49 166.53-4.26 165.1-2.03 162.45-0.71 159.8 0.61 156.11 0.61ZM179.01 0L173.84 0 173.84-36.52 179.01-36.52 179.01-26.86 178.79-21.85Q180.48-23.44 182.45-24.62 184.43-25.81 187.02-25.81L187.02-25.81Q191-25.81 192.85-23.23 194.71-20.65 194.71-15.87L194.71-15.87 194.71 0 189.56 0 189.56-15.21Q189.56-18.51 188.54-19.93 187.53-21.36 185.24-21.36L185.24-21.36Q183.5-21.36 182.11-20.46 180.72-19.56 179.01-17.87L179.01-17.87 179.01 0ZM212.33 0.61L212.33 0.61Q209.23 0.61 206.54-0.94 203.84-2.49 202.19-5.43 200.54-8.37 200.54-12.57L200.54-12.57Q200.54-16.75 202.19-19.71 203.84-22.68 206.54-24.24 209.23-25.81 212.33-25.81L212.33-25.81Q215.48-25.81 218.18-24.24 220.88-22.68 222.54-19.71 224.2-16.75 224.2-12.57L224.2-12.57Q224.2-8.37 222.54-5.43 220.88-2.49 218.18-0.94 215.48 0.61 212.33 0.61ZM212.33-3.61L212.33-3.61Q215.34-3.61 217.12-6.07 218.9-8.52 218.9-12.57L218.9-12.57Q218.9-16.6 217.12-19.08 215.34-21.56 212.33-21.56L212.33-21.56Q209.38-21.56 207.61-19.08 205.84-16.6 205.84-12.57L205.84-12.57Q205.84-8.52 207.61-6.07 209.38-3.61 212.33-3.61ZM235.57 10.25L230.4 10.25 230.4-25.17 234.67-25.17 235.09-22.41 235.21-22.41Q236.84-23.78 238.87-24.79 240.9-25.81 243-25.81L243-25.81Q247.78-25.81 250.38-22.3 252.98-18.8 252.98-12.99L252.98-12.99Q252.98-8.69 251.44-5.65 249.9-2.61 247.44-1 244.97 0.61 242.12 0.61L242.12 0.61Q240.43 0.61 238.75-0.12 237.06-0.85 235.43-2.22L235.43-2.22 235.57 2.08 235.57 10.25ZM241.12-3.66L241.12-3.66Q243.92-3.66 245.79-6.07 247.66-8.47 247.66-12.92L247.66-12.92Q247.66-16.87 246.23-19.2 244.8-21.53 241.63-21.53L241.63-21.53Q240.16-21.53 238.69-20.74 237.21-19.95 235.57-18.38L235.57-18.38 235.57-6.01Q237.09-4.71 238.52-4.19 239.94-3.66 241.12-3.66Z" fill="#ff6b6b" data-fill-palette-color="accent"></path></g></svg></g></svg></g><g transform="matrix(1,0,0,1,0,89.93073786101381)"><svg viewBox="0 0 395.52 44.96260423963133" height="44.96260423963133" width="395.52"><g transform="matrix(1,0,0,1,0,0)"><svg width="395.52" viewBox="2.56 -36.52 420.94 47.85" height="44.96260423963133" data-palette-color="#000000"><path d="M17.24 0.61L17.24 0.61Q12.92 0.61 9.61-1.53 6.3-3.66 4.43-7.62 2.56-11.57 2.56-17.02L2.56-17.02Q2.56-22.46 4.43-26.34 6.3-30.22 9.61-32.3 12.92-34.38 17.24-34.38L17.24-34.38Q21.56-34.38 24.87-32.29 28.17-30.2 30.04-26.31 31.91-22.41 31.91-17.02L31.91-17.02Q31.91-11.57 30.04-7.62 28.17-3.66 24.87-1.53 21.56 0.61 17.24 0.61ZM17.24-3.93L17.24-3.93Q20.07-3.93 22.16-5.54 24.24-7.15 25.4-10.08 26.56-13.01 26.56-17.02L26.56-17.02Q26.56-22.97 24.02-26.39 21.48-29.81 17.24-29.81L17.24-29.81Q13.04-29.81 10.5-26.39 7.96-22.97 7.96-17.02L7.96-17.02Q7.96-13.01 9.11-10.08 10.25-7.15 12.34-5.54 14.43-3.93 17.24-3.93ZM47.45 0L42.27 0 42.27-25.17 46.55-25.17 46.96-21.7 47.08-21.7Q48.84-23.41 50.86-24.61 52.87-25.81 55.46-25.81L55.46-25.81Q59.44-25.81 61.29-23.23 63.15-20.65 63.15-15.87L63.15-15.87 63.15 0 58 0 58-15.21Q58-18.51 56.98-19.93 55.97-21.36 53.68-21.36L53.68-21.36Q51.94-21.36 50.55-20.46 49.16-19.56 47.45-17.87L47.45-17.87 47.45 0ZM79.84 0.61L79.84 0.61Q77.03 0.61 75.83-1.09 74.64-2.78 74.64-5.83L74.64-5.83 74.64-36.52 79.81-36.52 79.81-5.54Q79.81-4.44 80.2-4.03 80.59-3.61 81.1-3.61L81.1-3.61Q81.3-3.61 81.48-3.63 81.67-3.64 81.98-3.71L81.98-3.71 82.62 0.12Q82.13 0.34 81.43 0.48 80.74 0.61 79.84 0.61ZM97.23 0L92.06 0 92.06-25.17 97.23-25.17 97.23 0ZM94.69-29.93L94.69-29.93Q93.25-29.93 92.37-30.8 91.49-31.67 91.49-33.08L91.49-33.08Q91.49-34.45 92.37-35.29 93.25-36.13 94.69-36.13L94.69-36.13Q96.13-36.13 97.01-35.29 97.89-34.45 97.89-33.08L97.89-33.08Q97.89-31.67 97.01-30.8 96.13-29.93 94.69-29.93ZM114.21 0L109.04 0 109.04-25.17 113.31-25.17 113.72-21.7 113.85-21.7Q115.6-23.41 117.62-24.61 119.63-25.81 122.22-25.81L122.22-25.81Q126.2-25.81 128.05-23.23 129.91-20.65 129.91-15.87L129.91-15.87 129.91 0 124.76 0 124.76-15.21Q124.76-18.51 123.75-19.93 122.73-21.36 120.44-21.36L120.44-21.36Q118.7-21.36 117.31-20.46 115.92-19.56 114.21-17.87L114.21-17.87 114.21 0ZM151.9 0.61L151.9 0.61Q148.5 0.61 145.72-0.96 142.94-2.54 141.3-5.48 139.66-8.42 139.66-12.57L139.66-12.57Q139.66-16.65 141.31-19.63 142.96-22.61 145.58-24.21 148.21-25.81 151.14-25.81L151.14-25.81Q156.09-25.81 158.73-22.53 161.37-19.26 161.37-13.89L161.37-13.89Q161.37-13.13 161.31-12.43 161.25-11.72 161.15-11.23L161.15-11.23 144.72-11.23Q145.04-7.59 147.15-5.49 149.26-3.39 152.55-3.39L152.55-3.39Q154.29-3.39 155.8-3.87 157.32-4.35 158.68-5.22L158.68-5.22 160.42-2.05Q158.66-0.83 156.53-0.11 154.41 0.61 151.9 0.61ZM144.67-14.79L144.67-14.79 156.88-14.79Q156.88-18.14 155.44-19.96 154-21.78 151.24-21.78L151.24-21.78Q148.82-21.78 146.93-19.97 145.04-18.16 144.67-14.79ZM201.16 0.61L201.16 0.61Q197.6 0.61 194.52-0.7 191.45-2 189.15-4.37L189.15-4.37 192.03-7.81Q193.82-5.98 196.26-4.96 198.7-3.93 201.24-3.93L201.24-3.93Q204.31-3.93 206-5.26 207.68-6.59 207.68-8.79L207.68-8.79Q207.68-10.35 206.98-11.28 206.27-12.21 205.03-12.87 203.8-13.53 202.24-14.21L202.24-14.21 197.55-16.26Q195.92-16.94 194.34-18.07 192.77-19.19 191.74-20.91 190.72-22.63 190.72-25.1L190.72-25.1Q190.72-27.76 192.14-29.85 193.57-31.93 196.05-33.15 198.53-34.38 201.73-34.38L201.73-34.38Q204.78-34.38 207.41-33.23 210.05-32.08 211.91-30.27L211.91-30.27 209.1-26.81Q207.51-28.2 205.63-29 203.75-29.81 201.73-29.81L201.73-29.81Q199.14-29.81 197.58-28.63 196.01-27.44 196.01-25.42L196.01-25.42Q196.01-23.95 196.81-23.02 197.6-22.09 198.85-21.45 200.09-20.8 201.46-20.24L201.46-20.24 206.1-18.29Q209.1-17.04 211.05-14.98 213.01-12.92 213.01-9.2L213.01-9.2Q213.01-6.49 211.58-4.26 210.15-2.03 207.5-0.71 204.85 0.61 201.16 0.61ZM227.91 0L222.74 0 222.74-36.52 227.91-36.52 227.91-26.86 227.69-21.85Q229.38-23.44 231.35-24.62 233.33-25.81 235.92-25.81L235.92-25.81Q239.9-25.81 241.75-23.23 243.61-20.65 243.61-15.87L243.61-15.87 243.61 0 238.46 0 238.46-15.21Q238.46-18.51 237.44-19.93 236.43-21.36 234.14-21.36L234.14-21.36Q232.4-21.36 231.01-20.46 229.62-19.56 227.91-17.87L227.91-17.87 227.91 0ZM265.08 0.61L265.08 0.61Q261.98 0.61 259.28-0.94 256.59-2.49 254.94-5.43 253.29-8.37 253.29-12.57L253.29-12.57Q253.29-16.75 254.94-19.71 256.59-22.68 259.28-24.24 261.98-25.81 265.08-25.81L265.08-25.81Q268.23-25.81 270.93-24.24 273.63-22.68 275.29-19.71 276.95-16.75 276.95-12.57L276.95-12.57Q276.95-8.37 275.29-5.43 273.63-2.49 270.93-0.94 268.23 0.61 265.08 0.61ZM265.08-3.61L265.08-3.61Q268.09-3.61 269.87-6.07 271.65-8.52 271.65-12.57L271.65-12.57Q271.65-16.6 269.87-19.08 268.09-21.56 265.08-21.56L265.08-21.56Q262.13-21.56 260.36-19.08 258.59-16.6 258.59-12.57L258.59-12.57Q258.59-8.52 260.36-6.07 262.13-3.61 265.08-3.61ZM292.17 10.25L286.99 10.25 286.99-25.17 291.27-25.17 291.68-22.41 291.8-22.41Q293.44-23.78 295.47-24.79 297.49-25.81 299.59-25.81L299.59-25.81Q304.38-25.81 306.98-22.3 309.58-18.8 309.58-12.99L309.58-12.99Q309.58-8.69 308.04-5.65 306.5-2.61 304.04-1 301.57 0.61 298.71 0.61L298.71 0.61Q297.03 0.61 295.34-0.12 293.66-0.85 292.02-2.22L292.02-2.22 292.17 2.08 292.17 10.25ZM297.71-3.66L297.71-3.66Q300.52-3.66 302.39-6.07 304.26-8.47 304.26-12.92L304.26-12.92Q304.26-16.87 302.83-19.2 301.4-21.53 298.23-21.53L298.23-21.53Q296.76-21.53 295.28-20.74 293.81-19.95 292.17-18.38L292.17-18.38 292.17-6.01Q293.68-4.71 295.11-4.19 296.54-3.66 297.71-3.66ZM324.85 10.25L319.67 10.25 319.67-25.17 323.95-25.17 324.36-22.41 324.48-22.41Q326.12-23.78 328.15-24.79 330.17-25.81 332.27-25.81L332.27-25.81Q337.06-25.81 339.66-22.3 342.26-18.8 342.26-12.99L342.26-12.99Q342.26-8.69 340.72-5.65 339.18-2.61 336.71-1 334.25 0.61 331.39 0.61L331.39 0.61Q329.71 0.61 328.02-0.12 326.34-0.85 324.7-2.22L324.7-2.22 324.85 2.08 324.85 10.25ZM330.39-3.66L330.39-3.66Q333.2-3.66 335.07-6.07 336.93-8.47 336.93-12.92L336.93-12.92Q336.93-16.87 335.51-19.2 334.08-21.53 330.9-21.53L330.9-21.53Q329.44-21.53 327.96-20.74 326.49-19.95 324.85-18.38L324.85-18.38 324.85-6.01Q326.36-4.71 327.79-4.19 329.22-3.66 330.39-3.66ZM357.53 0L352.35 0 352.35-25.17 357.53-25.17 357.53 0ZM354.99-29.93L354.99-29.93Q353.55-29.93 352.67-30.8 351.79-31.67 351.79-33.08L351.79-33.08Q351.79-34.45 352.67-35.29 353.55-36.13 354.99-36.13L354.99-36.13Q356.43-36.13 357.31-35.29 358.19-34.45 358.19-33.08L358.19-33.08Q358.19-31.67 357.31-30.8 356.43-29.93 354.99-29.93ZM374.51 0L369.33 0 369.33-25.17 373.61-25.17 374.02-21.7 374.14-21.7Q375.9-23.41 377.91-24.61 379.93-25.81 382.52-25.81L382.52-25.81Q386.5-25.81 388.35-23.23 390.21-20.65 390.21-15.87L390.21-15.87 390.21 0 385.06 0 385.06-15.21Q385.06-18.51 384.04-19.93 383.03-21.36 380.73-21.36L380.73-21.36Q379-21.36 377.61-20.46 376.22-19.56 374.51-17.87L374.51-17.87 374.51 0ZM410.36 11.33L410.36 11.33Q405.77 11.33 402.84 9.66 399.91 7.98 399.91 4.69L399.91 4.69Q399.91 3.05 400.86 1.66 401.82 0.27 403.53-0.83L403.53-0.83 403.53-1.05Q402.57-1.64 401.94-2.66 401.3-3.69 401.3-5.2L401.3-5.2Q401.3-6.71 402.17-7.95 403.04-9.18 404.06-9.89L404.06-9.89 404.06-10.11Q402.77-11.06 401.78-12.78 400.79-14.5 400.79-16.75L400.79-16.75Q400.79-19.6 402.13-21.63 403.48-23.66 405.69-24.73 407.9-25.81 410.51-25.81L410.51-25.81Q411.56-25.81 412.49-25.62 413.41-25.44 414.15-25.17L414.15-25.17 423.08-25.17 423.08-21.31 418.22-21.31Q418.93-20.51 419.43-19.29 419.93-18.07 419.93-16.65L419.93-16.65Q419.93-13.89 418.67-11.95 417.42-10.01 415.28-9 413.15-7.98 410.51-7.98L410.51-7.98Q409.65-7.98 408.73-8.17 407.8-8.35 406.97-8.72L406.97-8.72Q406.33-8.2 405.94-7.59 405.55-6.98 405.55-6.08L405.55-6.08Q405.55-4.93 406.47-4.26 407.38-3.59 409.8-3.59L409.8-3.59 414.46-3.59Q418.93-3.59 421.21-2.12 423.5-0.66 423.5 2.54L423.5 2.54Q423.5 4.96 421.87 6.95 420.25 8.94 417.31 10.13 414.37 11.33 410.36 11.33ZM410.51-11.28L410.51-11.28Q412.49-11.28 413.91-12.74 415.34-14.21 415.34-16.75L415.34-16.75Q415.34-19.34 413.93-20.75 412.51-22.17 410.51-22.17L410.51-22.17Q408.48-22.17 407.09-20.75 405.7-19.34 405.7-16.75L405.7-16.75Q405.7-14.21 407.11-12.74 408.53-11.28 410.51-11.28ZM411.12 7.89L411.12 7.89Q414.41 7.89 416.43 6.51 418.44 5.13 418.44 3.34L418.44 3.34Q418.44 1.73 417.26 1.15 416.07 0.56 413.76 0.56L413.76 0.56 409.9 0.56Q407.97 0.56 406.53 0.2L406.53 0.2Q405.36 1.03 404.84 1.99 404.33 2.95 404.33 3.93L404.33 3.93Q404.33 5.79 406.14 6.84 407.94 7.89 411.12 7.89Z" opacity="1" transform="matrix(1,0,0,1,0,0)" fill="#000000" class="slogan-text-1" data-fill-palette-color="secondary" id="text-1"></path></svg></g></svg></g></svg></g></svg></g><g><svg viewBox="0 0 186.4251635810583 186.42259878309162" height="186.42259878309162" width="186.4251635810583"><g><svg xmlns="http://www.w3.org/2000/svg" xmlns:xlink="http://www.w3.org/1999/xlink" version="1.1" x="0" y="0" viewBox="1.9995872606674179 1 60.00082547866517 60" style="enable-background:new 0 0 64 64;" xml:space="preserve" height="186.42259878309162" width="186.4251635810583" class="icon-icon-0" data-fill-palette-color="accent" id="icon-0"><g fill="#ff6b6b" data-fill-palette-color="accent"><path d="M61.972 47.662C61.81 46.678 60.883 46 59.887 46H58.035C57.046 46.63 55.877 47 54.62 47H27.381A6.33 6.33 0 0 1 23.966 46H19.716A1 1 0 0 1 18.721 45.099L17.171 29.602A4 4 0 0 0 13.191 26H4A2.002 2.002 0 0 0 2.028 28.338C2.19 29.322 3.117 30 4.113 30H12.284A1 1 0 0 1 13.279 30.9L14.829 46.398A3.98 3.98 0 0 0 16.418 49.186 7 7 0 0 1 18 49C19.315 49 20.541 49.369 21.592 50H52.408A6.95 6.95 0 0 1 59.592 50H60A2.002 2.002 0 0 0 61.972 47.662" fill="#ff6b6b" data-fill-palette-color="accent"></path><path d="M35 11V9C35 5.691 37.691 3 41 3S47 5.691 47 9V11H48.73C48.822 11 48.909 11.017 49 11.023V9C49 4.589 45.411 1 41 1S33 4.589 33 9V11.023C33.09 11.017 33.178 11 33.27 11z" fill="#ff6b6b" data-fill-palette-color="accent"></path><path d="M18 51C15.243 51 13 53.243 13 56S15.243 61 18 61 23 58.757 23 56 20.757 51 18 51M18 59C16.346 59 15 57.654 15 56S16.346 53 18 53 21 54.346 21 56 19.654 59 18 59" fill="#ff6b6b" data-fill-palette-color="accent"></path><circle cx="18" cy="56" r="1.0" fill="#ff6b6b" data-fill-palette-color="accent"></circle><circle cx="56" cy="56" r="1.0" fill="#ff6b6b" data-fill-palette-color="accent"></circle><path d="M56 51C53.243 51 51 53.243 51 56S53.243 61 56 61 61 58.757 61 56 58.757 51 56 51M56 59C54.346 59 53 57.654 53 56S54.346 53 56 53 59 54.346 59 56 57.654 59 56 59" fill="#ff6b6b" data-fill-palette-color="accent"></path><path d="M33.871 38A10 10 0 0 0 37.822 40.473C37.451 39.758 37.135 38.923 36.876 38z" fill="#ff6b6b" data-fill-palette-color="accent"></path><path d="M36.018 32H31.051A9.9 9.9 0 0 0 32.353 36H36.425A28 28 0 0 1 36.018 32" fill="#ff6b6b" data-fill-palette-color="accent"></path><path d="M48.129 24A10 10 0 0 0 44.178 21.527C44.549 22.242 44.865 23.077 45.124 24z" fill="#ff6b6b" data-fill-palette-color="accent"></path><path d="M36.425 26H32.353A9.9 9.9 0 0 0 31.051 30H36.018A28 28 0 0 1 36.425 26" fill="#ff6b6b" data-fill-palette-color="accent"></path><path d="M41 21C40.375 21 39.585 22.099 38.972 24H43.028C42.415 22.099 41.625 21 41 21" fill="#ff6b6b" data-fill-palette-color="accent"></path><path d="M37.822 21.527A10 10 0 0 0 33.871 24H36.876C37.135 23.077 37.45 22.242 37.822 21.527" fill="#ff6b6b" data-fill-palette-color="accent"></path><path d="M27.381 45H54.619A4.386 4.386 0 0 0 58.886 39.624L52.996 14.386A4.35 4.35 0 0 0 49 11.023V15H51V17H45V15H47V11H35V15H37V17H31V15H33V11.023A4.35 4.35 0 0 0 29.004 14.385V14.386L23.114 39.624A4.386 4.386 0 0 0 27.381 45M41 19C47.617 19 53 24.383 53 31S47.617 43 41 43 29 37.617 29 31 34.383 19 41 19" fill="#ff6b6b" data-fill-palette-color="accent"></path><path d="M41 41C41.625 41 42.415 39.901 43.028 38H38.972C39.585 39.901 40.375 41 41 41" fill="#ff6b6b" data-fill-palette-color="accent"></path><path d="M45.982 30H50.949A9.9 9.9 0 0 0 49.647 26H45.575A28 28 0 0 1 45.982 30" fill="#ff6b6b" data-fill-palette-color="accent"></path><path d="M45.575 36H49.647A9.9 9.9 0 0 0 50.949 32H45.982A28 28 0 0 1 45.575 36" fill="#ff6b6b" data-fill-palette-color="accent"></path><path d="M43.541 36C43.771 34.831 43.931 33.485 43.981 32H38.018C38.069 33.485 38.228 34.831 38.458 36z" fill="#ff6b6b" data-fill-palette-color="accent"></path><path d="M43.541 26H38.459A25 25 0 0 0 38.019 30H43.982A25.4 25.4 0 0 0 43.541 26" fill="#ff6b6b" data-fill-palette-color="accent"></path><path d="M45.124 38C44.865 38.923 44.55 39.758 44.178 40.473A10 10 0 0 0 48.129 38z" fill="#ff6b6b" data-fill-palette-color="accent"></path></g></svg></g></svg></g></svg></g><defs></defs></svg><rect width="395.52" height="123.07009975604092" fill="none" stroke="none" visibility="hidden"></rect></g></svg></g></svg>